<mxfile host="www.draw.io" modified="2020-01-28T13:51:44.422Z" agent="Mozilla/5.0 (Macintosh; Intel Mac OS X 10_14_6) AppleWebKit/537.36 (KHTML, like Gecko) Chrome/79.0.3945.130 Safari/537.36" etag="fpsOPpzux36kf5pBoVyx" version="12.5.8" type="github">
  <diagram id="C5RBs43oDa-KdzZeNtuy" name="Page-1">
    <mxGraphModel dx="1351" dy="751" grid="1" gridSize="10" guides="1" tooltips="1" connect="1" arrows="1" fold="1" page="1" pageScale="1" pageWidth="827" pageHeight="1169" math="0" shadow="0">
      <root>
        <mxCell id="WIyWlLk6GJQsqaUBKTNV-0"/>
        <mxCell id="WIyWlLk6GJQsqaUBKTNV-1" parent="WIyWlLk6GJQsqaUBKTNV-0"/>
        <mxCell id="nYkA_RxuawQfYZLCcoVH-0" value="Superadmin" style="shape=umlActor;verticalLabelPosition=bottom;labelBackgroundColor=#ffffff;verticalAlign=top;html=1;outlineConnect=0;" vertex="1" parent="WIyWlLk6GJQsqaUBKTNV-1">
          <mxGeometry x="130" y="120" width="30" height="60" as="geometry"/>
        </mxCell>
        <mxCell id="nYkA_RxuawQfYZLCcoVH-10" value="Admin" style="shape=umlActor;verticalLabelPosition=bottom;labelBackgroundColor=#ffffff;verticalAlign=top;html=1;outlineConnect=0;" vertex="1" parent="WIyWlLk6GJQsqaUBKTNV-1">
          <mxGeometry x="130" y="240" width="30" height="60" as="geometry"/>
        </mxCell>
        <mxCell id="nYkA_RxuawQfYZLCcoVH-11" value="Fasilitator" style="shape=umlActor;verticalLabelPosition=bottom;labelBackgroundColor=#ffffff;verticalAlign=top;html=1;outlineConnect=0;" vertex="1" parent="WIyWlLk6GJQsqaUBKTNV-1">
          <mxGeometry x="130" y="360" width="30" height="60" as="geometry"/>
        </mxCell>
        <mxCell id="nYkA_RxuawQfYZLCcoVH-12" value="Lpp" style="shape=umlActor;verticalLabelPosition=bottom;labelBackgroundColor=#ffffff;verticalAlign=top;html=1;outlineConnect=0;" vertex="1" parent="WIyWlLk6GJQsqaUBKTNV-1">
          <mxGeometry x="130" y="480" width="30" height="60" as="geometry"/>
        </mxCell>
        <mxCell id="nYkA_RxuawQfYZLCcoVH-16" value="Administrator" style="shape=umlActor;verticalLabelPosition=bottom;labelBackgroundColor=#ffffff;verticalAlign=top;html=1;outlineConnect=0;" vertex="1" parent="WIyWlLk6GJQsqaUBKTNV-1">
          <mxGeometry x="410" y="200" width="30" height="60" as="geometry"/>
        </mxCell>
        <mxCell id="nYkA_RxuawQfYZLCcoVH-17" value="Administrator" style="shape=umlActor;verticalLabelPosition=bottom;labelBackgroundColor=#ffffff;verticalAlign=top;html=1;outlineConnect=0;" vertex="1" parent="WIyWlLk6GJQsqaUBKTNV-1">
          <mxGeometry x="410" y="360" width="30" height="60" as="geometry"/>
        </mxCell>
        <mxCell id="nYkA_RxuawQfYZLCcoVH-18" value="Peserta" style="shape=umlActor;verticalLabelPosition=bottom;labelBackgroundColor=#ffffff;verticalAlign=top;html=1;outlineConnect=0;" vertex="1" parent="WIyWlLk6GJQsqaUBKTNV-1">
          <mxGeometry x="130" y="600" width="30" height="60" as="geometry"/>
        </mxCell>
        <mxCell id="nYkA_RxuawQfYZLCcoVH-19" value="Course Creator" style="shape=umlActor;verticalLabelPosition=bottom;labelBackgroundColor=#ffffff;verticalAlign=top;html=1;outlineConnect=0;" vertex="1" parent="WIyWlLk6GJQsqaUBKTNV-1">
          <mxGeometry x="410" y="480" width="30" height="60" as="geometry"/>
        </mxCell>
        <mxCell id="nYkA_RxuawQfYZLCcoVH-20" value="Student" style="shape=umlActor;verticalLabelPosition=bottom;labelBackgroundColor=#ffffff;verticalAlign=top;html=1;outlineConnect=0;" vertex="1" parent="WIyWlLk6GJQsqaUBKTNV-1">
          <mxGeometry x="410" y="600" width="30" height="60" as="geometry"/>
        </mxCell>
        <mxCell id="nYkA_RxuawQfYZLCcoVH-21" value="" style="endArrow=classic;html=1;" edge="1" parent="WIyWlLk6GJQsqaUBKTNV-1">
          <mxGeometry width="50" height="50" relative="1" as="geometry">
            <mxPoint x="160" y="160" as="sourcePoint"/>
            <mxPoint x="400" y="240" as="targetPoint"/>
          </mxGeometry>
        </mxCell>
        <mxCell id="nYkA_RxuawQfYZLCcoVH-22" value="" style="endArrow=classic;html=1;" edge="1" parent="WIyWlLk6GJQsqaUBKTNV-1">
          <mxGeometry width="50" height="50" relative="1" as="geometry">
            <mxPoint x="160" y="280" as="sourcePoint"/>
            <mxPoint x="400" y="240" as="targetPoint"/>
          </mxGeometry>
        </mxCell>
        <mxCell id="nYkA_RxuawQfYZLCcoVH-23" value="" style="endArrow=classic;html=1;" edge="1" parent="WIyWlLk6GJQsqaUBKTNV-1">
          <mxGeometry width="50" height="50" relative="1" as="geometry">
            <mxPoint x="160" y="400" as="sourcePoint"/>
            <mxPoint x="400" y="400" as="targetPoint"/>
          </mxGeometry>
        </mxCell>
        <mxCell id="nYkA_RxuawQfYZLCcoVH-24" value="" style="endArrow=classic;html=1;" edge="1" parent="WIyWlLk6GJQsqaUBKTNV-1">
          <mxGeometry width="50" height="50" relative="1" as="geometry">
            <mxPoint x="160" y="520" as="sourcePoint"/>
            <mxPoint x="400" y="520" as="targetPoint"/>
          </mxGeometry>
        </mxCell>
        <mxCell id="nYkA_RxuawQfYZLCcoVH-25" value="" style="endArrow=classic;html=1;" edge="1" parent="WIyWlLk6GJQsqaUBKTNV-1">
          <mxGeometry width="50" height="50" relative="1" as="geometry">
            <mxPoint x="160" y="640" as="sourcePoint"/>
            <mxPoint x="400" y="640" as="targetPoint"/>
          </mxGeometry>
        </mxCell>
      </root>
    </mxGraphModel>
  </diagram>
</mxfile>
